<svg width="167" height="52" viewBox="0 0 167 52" fill="none" xmlns="http://www.w3.org/2000/svg">
<g clip-path="url(#clip0_4_4717)">
<path d="M160.591 16.0684L151.496 24.9812L155.854 34.8617H162.187L157.83 24.9812L167 16.0684H160.591Z" fill="#6B7078"/>
<path d="M14.1875 13.4706C14.3648 13.5724 14.5675 13.6743 14.7448 13.7762C14.5422 13.6743 14.3648 13.5724 14.1875 13.4706Z" fill="#6B7078"/>
<path d="M4.58469 49.9369C4.88869 51.4648 5.1927 52.1779 5.82604 51.9232C6.28205 51.745 6.61139 51.0829 6.94072 50.3189C7.34606 49.3512 7.34606 49.0711 7.3714 48.6127C7.34606 47.7724 7.2954 46.932 7.24473 46.0917C6.15538 46.4737 5.09136 46.8047 4.02734 47.0339C4.20468 47.8997 4.40735 48.8674 4.61002 49.9369H4.58469Z" fill="#6B7078"/>
<path d="M17.9106 6.36667C17.7839 6.06108 17.5052 5.98469 17.0492 6.16294C16.1372 6.51946 14.1105 7.53807 12.0078 9.42249C13.3252 9.70261 14.8705 10.0591 16.4919 10.5939C17.6572 8.37842 18.1386 6.97783 17.9359 6.39213L17.9106 6.36667Z" fill="#6B7078"/>
<path d="M6.99185 42.6292C6.94119 38.4529 7.47319 34.1238 8.56255 29.6419C8.86655 28.4196 9.22122 27.1973 9.62656 25.975C9.93057 25.0582 10.2346 24.116 10.5639 23.1992C11.7039 20.067 13.0973 16.9348 14.744 13.7771C14.5666 13.6752 14.364 13.5734 14.1866 13.4715C12.9706 12.8349 12.1599 12.4784 11.0959 12.1219C11.0959 12.1219 10.5639 11.9436 9.70256 11.8163C9.04389 12.6312 8.41054 13.5479 7.87853 14.5665C3.9518 21.8496 1.59577 29.3873 1.82377 34.2512C1.82377 35.0406 1.82377 35.2188 1.97577 36.6449C2.07711 37.638 2.53311 40.1591 3.47046 44.5391C4.43315 44.0043 5.62383 43.3932 6.99185 42.7565C6.99185 42.7311 6.99185 42.6801 6.99185 42.6547V42.6292Z" fill="#6B7078"/>
<path d="M27.3603 16.8066C24.1683 13.6744 20.0896 11.7645 16.4668 10.5931C14.8455 10.0583 13.3001 9.67632 11.9828 9.42166C9.37339 8.8869 7.60003 8.78503 7.60003 8.78503C4.20531 8.96329 4.55998 12.1974 4.55998 12.1974C4.66132 12.5794 5.01599 12.2992 5.01599 12.2992C6.71335 11.5862 8.51204 11.6371 9.70273 11.8154C10.5387 11.9427 11.0961 12.121 11.0961 12.121C12.1601 12.4775 12.9454 12.834 14.1868 13.4706C14.3641 13.5725 14.5415 13.6744 14.7441 13.7762C17.7335 15.406 21.3056 17.6469 21.3056 17.6469C22.9776 18.7165 22.5216 19.6587 22.5216 19.6587C22.0149 21.5686 12.9708 22.8673 10.5387 23.1984C10.2094 24.1406 9.88007 25.0573 9.6014 25.9741C15.9602 26.6616 19.8869 32.0348 19.8869 32.0348C20.4696 32.7733 20.5202 33.7155 20.5202 33.7155C20.2922 37.2042 9.42406 41.7116 9.42406 41.7116C8.53738 42.0681 7.7267 42.4246 6.96669 42.7811C5.59867 43.4177 4.40798 44.0289 3.4453 44.5637C1.51993 45.6332 0.455916 46.3972 0.455916 46.3972C-0.582768 47.3139 0.329247 47.3649 0.329247 47.3649C1.4946 47.4412 2.71062 47.3394 3.97731 47.0847C5.04132 46.881 6.10534 46.55 7.19469 46.1425C15.0482 43.2904 23.0283 36.4912 23.0283 36.4912C26.1443 33.8174 26.195 32.264 26.195 32.264C26.0937 27.4256 16.4415 24.8536 16.4415 24.8536C22.3696 22.8418 27.3097 18.9966 27.3097 18.9966C28.4244 17.978 27.3603 16.832 27.3603 16.832V16.8066Z" fill="#6B7078"/>
<path d="M16.1372 4.35451C15.4025 6.03521 13.6798 6.90103 12.2864 6.28987C10.8931 5.6787 10.3864 3.81974 11.1211 2.13903C11.8558 0.458329 13.5785 -0.407489 14.9718 0.203677C16.3652 0.814842 16.8718 2.6738 16.1372 4.35451Z" fill="#6B7078"/>
<path d="M33.668 34.9125L38.5067 16.1191H45.3975C47.2215 16.1191 48.5642 16.4757 49.4762 17.2141C50.3882 17.9526 50.8442 19.0476 50.8442 20.5246C50.8442 21.8743 50.4389 22.9438 49.6536 23.7078C48.8682 24.4717 47.6522 24.981 46.0562 25.1848L46.0055 25.3121C47.0949 25.5413 47.9055 25.9742 48.4629 26.6363C49.0202 27.2984 49.2989 28.1642 49.2989 29.2337C49.2989 31.0418 48.7162 32.4424 47.5255 33.4355C46.3602 34.4286 44.6628 34.9125 42.4588 34.9125H33.668ZM39.1401 31.6275H41.4201C42.4841 31.6275 43.3201 31.3983 43.8775 30.9144C44.4348 30.4306 44.7135 29.743 44.7135 28.8518C44.7135 28.1642 44.5108 27.6549 44.1308 27.3493C43.7508 27.0437 43.0921 26.8909 42.2308 26.8909H40.3561L39.1401 31.6275ZM41.1414 23.8351H43.0921C44.1561 23.8351 44.9415 23.6314 45.4482 23.1985C45.9548 22.7656 46.2082 22.1035 46.2082 21.2377C46.2082 20.6265 46.0055 20.1936 45.6255 19.888C45.2455 19.5824 44.6628 19.4296 43.8775 19.4296H42.2561L41.1414 23.8606V23.8351Z" fill="#6B7078"/>
<path d="M49.7793 34.9125L54.5927 16.1191H59.3808L54.542 34.9125H49.7793Z" fill="#6B7078"/>
<path d="M62.7265 34.9125L67.5653 16.1191H74.7347L74.1774 26.076C74.1774 26.2288 74.1774 26.458 74.1267 26.7891C74.0507 28.2151 73.9494 29.3865 73.8227 30.3033C74.152 29.03 74.6587 27.6294 75.3427 26.1524L75.4187 25.9997L80.0295 16.1191H87.4269L82.5882 34.9125H78.3068L82.6388 18.1054L74.684 34.9125H70.2L71.036 18.1818L66.7292 34.9125H62.7012H62.7265Z" fill="#6B7078"/>
<path d="M83.7773 34.9125L94.8482 16.1191H100.396L102.246 34.9125H97.3816L97.2296 31.0672H90.6175L88.4641 34.9125H83.7773ZM92.5175 27.6804H96.9762L96.6215 20.1426L92.5175 27.6804Z" fill="#6B7078"/>
<path d="M104.349 34.9125L108.25 19.7607H103.158L104.096 16.1191H118.561L117.624 19.7607H113.013L109.112 34.9125H104.324H104.349Z" fill="#6B7078"/>
<path d="M114.33 34.9125L119.169 16.1191H126.49C128.137 16.1191 129.404 16.5011 130.316 17.2651C131.228 18.029 131.709 19.0986 131.709 20.4737C131.709 21.8488 131.304 22.9948 130.468 23.8351C129.632 24.7009 128.466 25.2102 126.921 25.4139L126.87 25.5667C127.656 25.745 128.238 26.0251 128.568 26.4071C128.897 26.7891 129.074 27.3748 129.074 28.1387C129.074 28.4698 129.049 29.1828 128.973 30.3033C128.897 31.4237 128.872 32.3405 128.872 33.1299C128.872 33.3846 128.872 33.6647 128.897 33.9703C128.897 34.2758 128.948 34.5814 128.998 34.9379H124.286C124.236 34.5814 124.21 34.2249 124.21 33.9193C124.21 33.6138 124.185 33.3336 124.185 33.0535C124.185 32.5187 124.236 31.8567 124.312 31.0163C124.413 30.1759 124.438 29.6157 124.438 29.3101C124.438 28.6735 124.286 28.2406 124.008 27.9605C123.729 27.7058 123.197 27.553 122.462 27.553H120.891L118.991 34.9125H114.305H114.33ZM121.778 24.2425H123.399C124.641 24.2425 125.604 23.9879 126.237 23.4786C126.87 22.9693 127.2 22.2308 127.2 21.2377C127.2 20.601 127.022 20.1426 126.642 19.888C126.288 19.6079 125.654 19.4806 124.742 19.4806H122.969L121.753 24.2425H121.778Z" fill="#6B7078"/>
<path d="M130.189 34.9125L135.003 16.1191H139.791L134.952 34.9125H130.189Z" fill="#6B7078"/>
<path d="M135.205 34.9125L144.021 25.2612L140.297 16.1191H145.567L147.543 22.3072L152.508 16.1191H158.309L150.051 25.0574L153.977 34.9125H148.733L146.453 27.9859L140.956 34.9125H135.18H135.205Z" fill="#6B7078"/>
<path d="M34.7575 49.1737H33.8708C33.8708 49.1737 33.7441 49.1227 33.7441 49.0464V42.0179C33.7441 42.0179 33.7948 41.8906 33.8708 41.8906H34.7575C34.7575 41.8906 34.8842 41.9416 34.8842 42.0179V49.0464C34.8842 49.0464 34.8335 49.1737 34.7575 49.1737Z" fill="#6B7078"/>
<path d="M39.52 49.147C39.52 49.147 39.4693 49.1471 39.444 49.0961C39.444 49.0707 39.4187 49.0452 39.4187 48.9943V45.913C39.4187 45.4546 39.3427 45.1235 39.1907 44.9198C39.0387 44.7161 38.8107 44.6142 38.5067 44.6142C38.076 44.6142 37.772 44.7416 37.5693 44.9708C37.3666 45.1999 37.2653 45.5565 37.2653 45.9894V49.0197C37.2653 49.0197 37.2146 49.147 37.1386 49.147H36.3533C36.3533 49.147 36.3026 49.1471 36.2773 49.0961C36.2773 49.0707 36.252 49.0452 36.252 48.9943V45.149C36.252 44.8944 36.252 44.6652 36.252 44.436C36.252 44.2068 36.252 44.0285 36.252 43.9012C36.252 43.8248 36.2773 43.7739 36.3786 43.7739H37.1386C37.1386 43.7739 37.24 43.7994 37.2146 43.8503V44.2068C37.3666 44.054 37.5693 43.9267 37.772 43.7994C37.9746 43.672 38.2533 43.6211 38.5573 43.6211C39.1653 43.6211 39.6467 43.7994 39.976 44.1559C40.3053 44.5124 40.4574 45.0471 40.4574 45.7347V48.9688C40.4574 48.9688 40.4067 49.0961 40.3307 49.0961H39.5453L39.52 49.147Z" fill="#6B7078"/>
<path d="M44.6375 49.0723C44.6375 49.0723 44.4095 49.1741 44.2069 49.2251C44.0042 49.276 43.8015 49.3015 43.5735 49.3015C43.2948 49.3015 43.0922 49.2505 42.9402 49.1232C42.7882 49.0214 42.6615 48.8686 42.5855 48.7412C42.4842 48.563 42.4335 48.3847 42.4335 48.1555C42.4335 47.9263 42.4082 47.6208 42.4082 47.2388V44.8196H41.6228C41.6228 44.8196 41.5722 44.8196 41.5468 44.7941C41.5468 44.7941 41.5215 44.7432 41.5215 44.7177V43.9538C41.5215 43.9538 41.5215 43.9028 41.5468 43.8774C41.5722 43.8519 41.5975 43.8519 41.6228 43.8519H42.4082V42.5023C42.4082 42.5023 42.4082 42.4513 42.4588 42.4259C42.4842 42.4259 42.5095 42.4004 42.5348 42.4004H43.3202C43.3202 42.4004 43.3962 42.4004 43.4215 42.4259C43.4215 42.4259 43.4468 42.4768 43.4468 42.5023V43.8519H44.3589C44.3589 43.8519 44.4095 43.8519 44.4349 43.8774C44.4349 43.8774 44.4602 43.9283 44.4602 43.9538V44.7177C44.4602 44.7177 44.4602 44.7687 44.4349 44.7941C44.4095 44.8196 44.3842 44.8196 44.3589 44.8196H43.4468V47.3152C43.4468 47.7481 43.4468 48.0282 43.4722 48.1555C43.4975 48.2829 43.5482 48.3338 43.6495 48.3593C43.7509 48.3847 43.8522 48.3847 43.9789 48.3593C44.0549 48.3593 44.1562 48.3338 44.2575 48.3083C44.3589 48.3083 44.4602 48.2574 44.5362 48.2319C44.5615 48.2319 44.5869 48.2319 44.6122 48.2319C44.6122 48.2319 44.6375 48.2829 44.6629 48.3338L44.7389 48.9704C44.7389 48.9704 44.7389 49.0468 44.6882 49.0977L44.6375 49.0723Z" fill="#6B7078"/>
<path d="M49.5525 46.7294C49.5525 46.7294 49.5525 46.8313 49.5018 46.8568C49.4765 46.8822 49.4512 46.9077 49.4005 46.9077H46.2338C46.2591 47.3406 46.4111 47.6971 46.6391 47.9772C46.8671 48.2573 47.1965 48.3847 47.6018 48.3847C47.8045 48.3847 48.0578 48.3592 48.3111 48.3083C48.5645 48.2573 48.8178 48.1555 49.0458 48.0282C49.0965 48.0027 49.1218 48.0282 49.1218 48.0282C49.1218 48.0282 49.1218 48.1046 49.1218 48.1555V48.8176C49.1218 48.8176 49.1218 48.9194 49.0965 48.9449C49.0711 48.9704 49.0458 49.0213 48.9698 49.0468C48.7671 49.1486 48.5645 49.225 48.2858 49.276C48.0325 49.3269 47.7538 49.3523 47.5005 49.3523C46.7151 49.3523 46.1071 49.1232 45.7018 48.6393C45.2964 48.1555 45.0938 47.4679 45.0938 46.5257C45.0938 46.1692 45.1444 45.8382 45.2204 45.5071C45.3218 45.1761 45.4484 44.8705 45.6258 44.6158C45.8031 44.3612 46.0311 44.132 46.3098 43.9792C46.5884 43.8264 46.9178 43.75 47.2978 43.75C47.6778 43.75 48.0071 43.8264 48.2858 43.9792C48.5645 44.132 48.7925 44.3357 48.9445 44.5904C49.0965 44.845 49.2485 45.1251 49.3245 45.4562C49.4005 45.7872 49.4512 46.1437 49.4512 46.5257C49.4512 46.5766 49.4512 46.6276 49.4512 46.6785C49.4512 46.7294 49.4512 46.7804 49.4512 46.8058L49.5525 46.7294ZM47.4498 44.6158C47.2725 44.6158 47.1204 44.6667 46.9938 44.7431C46.8671 44.8195 46.7404 44.9214 46.6391 45.0487C46.5378 45.1761 46.4618 45.3034 46.4111 45.4816C46.3604 45.6599 46.3098 45.8127 46.2844 45.9655H48.4885C48.4885 45.8381 48.4885 45.6854 48.4378 45.5326C48.3871 45.3798 48.3365 45.227 48.2605 45.0997C48.1845 44.9723 48.0831 44.845 47.9311 44.7686C47.8045 44.6667 47.6525 44.6413 47.4751 44.6413L47.4498 44.6158Z" fill="#6B7078"/>
<path d="M50.7439 49.1734C50.7439 49.1734 50.6426 49.1224 50.6426 49.046V41.4319C50.6426 41.4319 50.6426 41.381 50.6679 41.3555C50.6679 41.3555 50.7186 41.3301 50.7439 41.3301H51.5546C51.5546 41.3301 51.6053 41.3301 51.6306 41.3555C51.6306 41.3555 51.6559 41.4065 51.6559 41.4319V49.046C51.6559 49.046 51.6559 49.097 51.6306 49.1224C51.6306 49.1224 51.5799 49.1479 51.5546 49.1479H50.7439V49.1734Z" fill="#6B7078"/>
<path d="M53.074 49.1734C53.074 49.1734 52.9727 49.1224 52.9727 49.046V41.4319C52.9727 41.4319 52.9727 41.381 52.998 41.3555C52.998 41.3555 53.0487 41.3301 53.074 41.3301H53.8847C53.8847 41.3301 53.9353 41.3301 53.9607 41.3555C53.9607 41.3555 53.986 41.4065 53.986 41.4319V49.046C53.986 49.046 53.986 49.097 53.9607 49.1224C53.9607 49.1224 53.91 49.1479 53.8847 49.1479H53.074V49.1734Z" fill="#6B7078"/>
<path d="M55.8091 42.8066C55.6318 42.8066 55.4798 42.7557 55.3531 42.6284C55.2264 42.501 55.1758 42.3482 55.1758 42.17C55.1758 41.9917 55.2264 41.8135 55.3531 41.6861C55.4798 41.5588 55.6318 41.4824 55.8091 41.4824C55.9865 41.4824 56.1638 41.5588 56.2905 41.6861C56.4171 41.8135 56.4931 41.9663 56.4931 42.17C56.4931 42.3737 56.4171 42.501 56.2905 42.6284C56.1638 42.7557 56.0118 42.8066 55.8091 42.8066ZM55.3785 49.1729C55.3785 49.1729 55.3278 49.1729 55.3024 49.1475C55.3024 49.1475 55.2771 49.0965 55.2771 49.0711V44.0035C55.2771 44.0035 55.2771 43.9525 55.3024 43.9271C55.3024 43.9271 55.3531 43.9016 55.3785 43.9016H56.1891C56.1891 43.9016 56.2398 43.9016 56.2651 43.9271C56.2651 43.9271 56.2905 43.978 56.2905 44.0035V49.0711C56.2905 49.0711 56.2905 49.122 56.2651 49.1475C56.2651 49.1475 56.2145 49.1729 56.1891 49.1729H55.3785Z" fill="#6B7078"/>
<path d="M59.5345 50.6512C59.2811 50.6512 59.0278 50.6512 58.7744 50.6003C58.5211 50.5494 58.2678 50.4984 58.0398 50.422C57.9891 50.3966 57.9384 50.3711 57.9131 50.3456C57.9131 50.3456 57.8878 50.2947 57.8878 50.2438L57.9384 49.4544C57.9384 49.4544 58.0144 49.3016 58.1411 49.3525C58.3691 49.4544 58.5971 49.5562 58.8504 49.6072C59.1038 49.6581 59.3318 49.6835 59.5598 49.6835C59.9651 49.6835 60.3198 49.5817 60.5478 49.3525C60.8011 49.1233 60.9278 48.8432 60.9531 48.4612C60.7758 48.6395 60.5985 48.7668 60.3705 48.8687C60.1425 48.9705 59.9145 48.996 59.7118 48.996C59.3825 48.996 59.1038 48.9451 58.8251 48.8177C58.5464 48.6904 58.3184 48.5121 58.1158 48.3084C57.9131 48.0792 57.7611 47.8246 57.6598 47.519C57.5584 47.2134 57.4824 46.8824 57.4824 46.5004C57.4824 45.5582 57.6851 44.8452 58.0651 44.3868C58.4451 43.9284 59.0024 43.6992 59.7118 43.6992C59.8385 43.6992 59.9651 43.6992 60.0918 43.7502C60.2185 43.8011 60.3451 43.8265 60.4718 43.8775C60.5985 43.9284 60.6998 43.9793 60.8011 44.0557C60.9025 44.1321 61.0038 44.2085 61.0798 44.2849V43.9539C61.0798 43.9539 61.0798 43.8775 61.0798 43.852C61.0798 43.8265 61.1305 43.8265 61.2065 43.8265H61.9665C61.9665 43.8265 62.0932 43.8775 62.0932 43.9793V47.9774C62.0932 48.8432 61.8905 49.5308 61.4598 49.9891C61.0291 50.473 60.4211 50.7022 59.6105 50.7022L59.5345 50.6512ZM59.7625 44.6414C59.3571 44.6414 59.0531 44.7942 58.8251 45.0743C58.6224 45.3799 58.4958 45.8383 58.4958 46.4749C58.4958 46.7296 58.5211 46.9333 58.5971 47.137C58.6731 47.3407 58.7491 47.4935 58.8504 47.6209C58.9518 47.7482 59.0784 47.8501 59.2304 47.9264C59.3824 48.0028 59.5345 48.0283 59.6865 48.0283C59.8638 48.0283 60.0411 48.0028 60.1931 47.9264C60.3451 47.8501 60.4718 47.7482 60.5985 47.6209C60.7251 47.4935 60.8011 47.3153 60.8771 47.137C60.9531 46.9588 60.9785 46.7296 60.9785 46.4749C60.9785 45.8892 60.8771 45.4309 60.6491 45.1253C60.4211 44.8197 60.1425 44.6414 59.7371 44.6414H59.7625Z" fill="#6B7078"/>
<path d="M67.5642 46.7294C67.5642 46.7294 67.5642 46.8313 67.5135 46.8568C67.4882 46.8822 67.4629 46.9077 67.4122 46.9077H64.2455C64.2708 47.3406 64.4228 47.6971 64.6508 47.9772C64.8788 48.2573 65.2082 48.3847 65.6135 48.3847C65.8162 48.3847 66.0695 48.3592 66.3229 48.3083C66.5762 48.2573 66.8295 48.1555 67.0575 48.0282C67.1082 48.0027 67.1335 48.0282 67.1335 48.0282C67.1335 48.0282 67.1335 48.1046 67.1335 48.1555V48.8176C67.1335 48.8176 67.1335 48.9194 67.1082 48.9449C67.0829 48.9704 67.0575 49.0213 66.9815 49.0468C66.7789 49.1486 66.5762 49.225 66.2975 49.276C66.0442 49.3269 65.7655 49.3523 65.5122 49.3523C64.7268 49.3523 64.1188 49.1232 63.7135 48.6393C63.3081 48.1555 63.1055 47.4679 63.1055 46.5257C63.1055 46.1692 63.1561 45.8382 63.2321 45.5071C63.3335 45.1761 63.4601 44.8705 63.6375 44.6158C63.8148 44.3612 64.0428 44.132 64.3215 43.9792C64.6002 43.8264 64.9295 43.75 65.3095 43.75C65.6895 43.75 66.0188 43.8264 66.2975 43.9792C66.5762 44.132 66.8042 44.3357 66.9562 44.5904C67.1082 44.845 67.2602 45.1251 67.3362 45.4562C67.4122 45.7872 67.4629 46.1437 67.4629 46.5257C67.4629 46.5766 67.4629 46.6276 67.4629 46.6785C67.4629 46.7294 67.4629 46.7804 67.4629 46.8058L67.5642 46.7294ZM65.4615 44.6158C65.2842 44.6158 65.1322 44.6667 65.0055 44.7431C64.8788 44.8195 64.7522 44.9214 64.6508 45.0487C64.5495 45.1761 64.4735 45.3034 64.4228 45.4816C64.3722 45.6599 64.3215 45.8127 64.2962 45.9655H66.5002C66.5002 45.8381 66.5002 45.6854 66.4495 45.5326C66.3989 45.3798 66.3482 45.227 66.2722 45.0997C66.1962 44.9723 66.0949 44.845 65.9429 44.7686C65.8162 44.6667 65.6642 44.6413 65.4868 44.6413L65.4615 44.6158Z" fill="#6B7078"/>
<path d="M72.1001 49.147C72.1001 49.147 72.0494 49.1471 72.0241 49.0961C72.0241 49.0707 71.9987 49.0452 71.9987 48.9943V45.913C71.9987 45.4546 71.9227 45.1235 71.7707 44.9198C71.6187 44.7161 71.3907 44.6142 71.0867 44.6142C70.6561 44.6142 70.3521 44.7416 70.1494 44.9708C69.9467 45.1999 69.8454 45.5565 69.8454 45.9894V49.0197C69.8454 49.0197 69.7947 49.147 69.7187 49.147H68.9334C68.9334 49.147 68.8827 49.1471 68.8574 49.0961C68.8574 49.0707 68.832 49.0452 68.832 48.9943V45.149C68.832 44.8944 68.832 44.6652 68.832 44.436C68.832 44.2068 68.832 44.0285 68.832 43.9012C68.832 43.8248 68.8574 43.7739 68.9587 43.7739H69.7187C69.7187 43.7739 69.82 43.7994 69.7947 43.8503V44.2068C69.9467 44.054 70.1494 43.9267 70.3521 43.7994C70.5801 43.6975 70.8334 43.6211 71.1374 43.6211C71.7454 43.6211 72.2268 43.7994 72.5561 44.1559C72.8854 44.5124 73.0374 45.0471 73.0374 45.7347V48.9688C73.0374 48.9688 72.9868 49.0961 72.9108 49.0961H72.1254L72.1001 49.147Z" fill="#6B7078"/>
<path d="M78.0773 49.1488C78.0773 49.1488 77.9253 49.1997 77.824 49.2252C77.7227 49.2506 77.6213 49.2506 77.4947 49.2761C77.368 49.2761 77.2413 49.2761 77.1147 49.2761C76.988 49.2761 76.8613 49.2761 76.7347 49.2761C76.3293 49.2506 75.9747 49.1742 75.6706 49.0215C75.3666 48.8687 75.088 48.6649 74.8853 48.4358C74.6826 48.2066 74.5053 47.901 74.404 47.5699C74.3026 47.2389 74.252 46.8824 74.252 46.5004C74.252 46.093 74.328 45.711 74.4546 45.3799C74.5813 45.0489 74.7586 44.7433 74.9866 44.4886C75.2146 44.234 75.4933 44.0557 75.8226 43.9029C76.152 43.7756 76.5067 43.6992 76.912 43.6992C77.1147 43.6992 77.3173 43.6992 77.52 43.7247C77.7227 43.7247 77.9253 43.8011 78.1027 43.852C78.128 43.852 78.1534 43.852 78.1534 43.9029C78.1534 43.9029 78.1534 43.9539 78.1534 44.0303L78.0773 44.6924C78.0773 44.6924 78.0773 44.7688 78.0267 44.7942C78.0267 44.7942 77.976 44.7942 77.9 44.7942C77.748 44.7433 77.596 44.7178 77.3933 44.6924C77.216 44.6924 77.0387 44.6669 76.8613 44.6669C76.3547 44.6669 75.9493 44.8452 75.6706 45.1762C75.392 45.5072 75.2653 45.9402 75.2653 46.5004C75.2653 47.0606 75.392 47.4426 75.6453 47.7737C75.8986 48.1047 76.2533 48.283 76.7347 48.3339C77.1653 48.3848 77.5707 48.3339 77.9253 48.2575C78.0013 48.232 78.0267 48.232 78.052 48.2575C78.052 48.2575 78.0773 48.3084 78.0773 48.3339L78.128 48.996C78.128 48.996 78.128 49.0724 78.128 49.0978C78.128 49.0978 78.0773 49.1488 78.0267 49.1488H78.0773Z" fill="#6B7078"/>
<path d="M83.2712 46.7294C83.2712 46.7294 83.2712 46.8313 83.2206 46.8568C83.1952 46.8822 83.1699 46.9077 83.1192 46.9077H79.9525C79.9778 47.3406 80.1299 47.6971 80.3579 47.9772C80.5859 48.2573 80.9152 48.3847 81.3205 48.3847C81.5232 48.3847 81.7765 48.3592 82.0299 48.3083C82.2832 48.2573 82.5366 48.1555 82.7646 48.0282C82.8152 48.0027 82.8406 48.0282 82.8406 48.0282C82.8406 48.0536 82.8406 48.1046 82.8406 48.1555V48.8176C82.8406 48.8176 82.8406 48.9194 82.8152 48.9449C82.8152 48.9704 82.7646 49.0213 82.6886 49.0468C82.4859 49.1486 82.2832 49.225 82.0045 49.276C81.7512 49.3269 81.4725 49.3523 81.2192 49.3523C80.4339 49.3523 79.8258 49.1232 79.4205 48.6393C79.0152 48.1555 78.8125 47.4679 78.8125 46.5257C78.8125 46.1692 78.8632 45.8382 78.9392 45.5071C79.0405 45.1761 79.1672 44.8705 79.3445 44.6158C79.5218 44.3612 79.7498 44.132 80.0285 43.9792C80.3072 43.8264 80.6365 43.75 81.0165 43.75C81.3965 43.75 81.7259 43.8264 82.0045 43.9792C82.2832 44.132 82.5112 44.3357 82.6632 44.5904C82.8152 44.845 82.9672 45.1251 83.0432 45.4562C83.1192 45.7872 83.1699 46.1437 83.1699 46.5257C83.1699 46.5766 83.1699 46.6276 83.1699 46.6785C83.1699 46.7294 83.1699 46.7804 83.1699 46.8058L83.2712 46.7294ZM81.1685 44.6158C80.9912 44.6158 80.8392 44.6667 80.7125 44.7431C80.5859 44.8195 80.4592 44.9214 80.3579 45.0487C80.2565 45.1761 80.1805 45.3034 80.1299 45.4816C80.0792 45.6344 80.0285 45.8127 80.0032 45.9655H82.2072C82.2072 45.8381 82.2072 45.6854 82.1566 45.5326C82.1059 45.3798 82.0552 45.227 81.9792 45.0997C81.9032 44.9723 81.8019 44.845 81.6499 44.7686C81.5232 44.6667 81.3712 44.6413 81.1939 44.6413L81.1685 44.6158Z" fill="#6B7078"/>
<path d="M90.543 48.6395C90.3657 48.8178 90.163 48.9706 89.9097 49.0979C89.6563 49.2252 89.3776 49.3016 89.099 49.3271C88.947 49.3271 88.7696 49.3271 88.5923 49.3271C88.415 49.3271 88.2123 49.3016 88.035 49.2761C87.8576 49.2507 87.7056 49.2252 87.5536 49.1743C87.4016 49.1233 87.3003 49.0979 87.2496 49.0724C87.1483 49.0215 87.0976 48.996 87.0723 48.9706C87.0723 48.9706 87.0723 48.8942 87.0723 48.8178L87.1483 48.1047C87.1483 48.1047 87.1483 48.0283 87.1989 48.0029C87.2243 48.0029 87.2749 48.0029 87.3509 48.0283C87.4269 48.0538 87.5283 48.1047 87.6803 48.1302C87.8323 48.1811 87.9843 48.2066 88.1616 48.2321C88.339 48.2575 88.5163 48.283 88.6936 48.283C88.871 48.283 89.023 48.283 89.175 48.2321C89.3523 48.1811 89.5043 48.1302 89.631 48.0538C89.7576 47.9774 89.8337 47.901 89.9097 47.7992C89.9857 47.6973 90.011 47.5954 90.0616 47.4681C90.087 47.3408 90.1123 47.2135 90.1123 47.0861C90.1123 46.9588 90.0363 46.806 89.8843 46.5768C89.7323 46.3731 89.5043 46.1694 89.2003 45.9911C88.8456 45.7874 88.5416 45.5837 88.263 45.4054C88.0096 45.2272 87.7816 45.0489 87.6043 44.8707C87.4269 44.6924 87.3003 44.5141 87.2243 44.3104C87.1483 44.1067 87.0976 43.903 87.0976 43.6738C87.0976 43.4191 87.1483 43.1645 87.2749 42.9098C87.3763 42.6806 87.5283 42.4515 87.7309 42.2732C87.9336 42.0949 88.1616 41.9422 88.4403 41.8403C88.719 41.7384 89.023 41.6875 89.327 41.6875C89.631 41.6875 89.935 41.6875 90.1377 41.7384C90.3403 41.7894 90.543 41.8403 90.695 41.8912C90.771 41.9167 90.7963 41.9421 90.8217 41.9676C90.847 41.9931 90.8217 42.044 90.8217 42.0695L90.695 42.6806C90.695 42.6806 90.6697 42.808 90.6443 42.8334C90.619 42.8589 90.5683 42.8589 90.4923 42.8334C90.391 42.808 90.2897 42.7825 90.163 42.7316C90.0363 42.6806 89.935 42.6806 89.8083 42.6552C89.6816 42.6552 89.5803 42.6297 89.4536 42.6042C89.327 42.5788 89.251 42.6042 89.1496 42.6042C88.795 42.6552 88.5416 42.7825 88.3896 42.9608C88.2376 43.139 88.1616 43.3682 88.1616 43.6229C88.1616 43.7756 88.2376 43.9539 88.415 44.1576C88.5923 44.3613 88.8203 44.5396 89.1496 44.7433C89.555 44.998 89.8843 45.2017 90.1377 45.4054C90.391 45.6091 90.5937 45.7874 90.7457 45.9657C90.8977 46.1439 90.999 46.3222 91.075 46.5004C91.151 46.6787 91.1763 46.8824 91.1763 47.0861C91.1763 47.6464 90.999 48.1302 90.619 48.5376L90.543 48.6395Z" fill="#6B7078"/>
<path d="M96.4451 48.4085C96.2171 48.6886 95.9385 48.9178 95.6091 49.0706C95.2798 49.2234 94.9251 49.2998 94.5198 49.2998C94.1144 49.2998 93.7598 49.2234 93.4304 49.0706C93.1264 48.9178 92.8477 48.7141 92.6451 48.4594C92.4424 48.2048 92.2651 47.8992 92.1637 47.5681C92.0624 47.2371 92.0117 46.8551 92.0117 46.4731C92.0117 46.0911 92.0624 45.7346 92.1637 45.3781C92.2651 45.0471 92.4171 44.7415 92.6451 44.4868C92.8477 44.2322 93.1264 44.0285 93.4304 43.8757C93.7344 43.7229 94.1144 43.6465 94.5198 43.6465C94.9251 43.6465 95.2798 43.7229 95.6091 43.8757C95.9131 44.0285 96.1918 44.2322 96.3945 44.4868C96.5971 44.7415 96.7745 45.0471 96.8758 45.3781C96.9771 45.7092 97.0278 46.0911 97.0278 46.4731C97.0278 46.8551 96.9771 47.2116 96.8758 47.5427C96.7745 47.8737 96.6225 48.1538 96.4451 48.4085ZM94.5451 44.6142C94.2918 44.6142 94.0891 44.6651 93.8864 44.767C93.7091 44.8688 93.5571 45.0216 93.4304 45.1999C93.3037 45.3781 93.2277 45.5818 93.1771 45.811C93.1264 46.0402 93.1011 46.2694 93.1011 46.4731C93.1011 46.6768 93.1264 46.9315 93.1771 47.1352C93.2277 47.3644 93.3291 47.5681 93.4304 47.7464C93.5317 47.9246 93.6837 48.0774 93.8864 48.1793C94.0638 48.2812 94.2918 48.3321 94.5451 48.3321C94.7984 48.3321 95.0011 48.2812 95.2038 48.1793C95.3811 48.0774 95.5331 47.9246 95.6598 47.7464C95.7864 47.5681 95.8624 47.3644 95.9131 47.1352C95.9638 46.906 95.9891 46.7023 95.9891 46.4731C95.9891 46.2439 95.9638 46.0402 95.9131 45.811C95.8624 45.5818 95.7611 45.3781 95.6598 45.1999C95.5331 45.0216 95.4064 44.8688 95.2038 44.767C95.0264 44.6651 94.7984 44.5887 94.5451 44.5887V44.6142Z" fill="#6B7078"/>
<path d="M98.2185 49.1734C98.2185 49.1734 98.1172 49.1224 98.1172 49.046V41.4319C98.1172 41.4319 98.1172 41.381 98.1425 41.3555C98.1425 41.3555 98.1932 41.3301 98.2185 41.3301H99.0292C99.0292 41.3301 99.0799 41.3301 99.1052 41.3555C99.1052 41.3555 99.1305 41.4065 99.1305 41.4319V49.046C99.1305 49.046 99.1305 49.097 99.1052 49.1224C99.1052 49.1224 99.0545 49.1479 99.0292 49.1479H98.2185V49.1734Z" fill="#6B7078"/>
<path d="M103.918 49.1485C103.918 49.1485 103.868 49.1485 103.842 49.1485C103.842 49.1485 103.817 49.0975 103.842 49.0721V48.6901C103.665 48.8938 103.462 49.0466 103.234 49.1739C103.006 49.2758 102.753 49.3267 102.474 49.3267C101.841 49.3267 101.385 49.1485 101.081 48.7665C100.777 48.41 100.625 47.8752 100.625 47.1877V43.9536C100.625 43.9536 100.625 43.9026 100.65 43.8517C100.65 43.8262 100.701 43.8008 100.726 43.8008H101.512C101.512 43.8008 101.562 43.8008 101.588 43.8517C101.613 43.9026 101.638 43.9281 101.638 43.9536V47.0349C101.638 47.5187 101.714 47.8498 101.866 48.0535C102.018 48.2572 102.246 48.3591 102.55 48.3591C102.905 48.3591 103.184 48.2317 103.412 47.9516C103.64 47.697 103.741 47.2895 103.741 46.7802V43.9536C103.741 43.9536 103.741 43.9026 103.766 43.8517C103.766 43.8262 103.817 43.8008 103.842 43.8008H104.628C104.628 43.8008 104.678 43.8008 104.704 43.8517C104.729 43.9026 104.729 43.9281 104.729 43.9536V47.9007C104.729 48.1044 104.729 48.3081 104.729 48.4864C104.729 48.6901 104.729 48.8684 104.729 49.0212C104.729 49.0975 104.704 49.1485 104.628 49.1485H103.842H103.918Z" fill="#6B7078"/>
<path d="M108.985 49.0723C108.985 49.0723 108.757 49.1741 108.555 49.2251C108.352 49.276 108.149 49.3015 107.921 49.3015C107.642 49.3015 107.44 49.2505 107.288 49.1232C107.136 49.0214 107.009 48.8686 106.933 48.7412C106.832 48.563 106.781 48.3847 106.781 48.1555C106.781 47.9263 106.756 47.6208 106.756 47.2388V44.8196H105.97C105.97 44.8196 105.92 44.8196 105.894 44.7941C105.894 44.7941 105.869 44.7432 105.869 44.7177V43.9538C105.869 43.9538 105.869 43.9028 105.894 43.8774C105.894 43.8774 105.945 43.8519 105.97 43.8519H106.756V42.5023C106.756 42.5023 106.756 42.4513 106.806 42.4259C106.832 42.4259 106.857 42.4004 106.882 42.4004H107.668C107.668 42.4004 107.744 42.4004 107.769 42.4259C107.769 42.4259 107.795 42.4768 107.795 42.5023V43.8519H108.707C108.707 43.8519 108.757 43.8519 108.783 43.8774C108.783 43.8774 108.808 43.9283 108.808 43.9538V44.7177C108.808 44.7177 108.808 44.7687 108.783 44.7941C108.783 44.7941 108.732 44.8196 108.707 44.8196H107.795V47.3152C107.795 47.7481 107.795 48.0282 107.82 48.1555C107.845 48.2829 107.896 48.3338 107.997 48.3593C108.099 48.3847 108.2 48.3847 108.327 48.3593C108.403 48.3593 108.504 48.3338 108.605 48.3083C108.707 48.3083 108.808 48.2574 108.884 48.2319C108.909 48.2319 108.935 48.2319 108.96 48.2319C108.96 48.2319 108.985 48.2829 109.011 48.3338L109.087 48.9704C109.087 48.9704 109.087 49.0468 109.036 49.0977L108.985 49.0723Z" fill="#6B7078"/>
<path d="M110.252 42.8066C110.075 42.8066 109.923 42.7557 109.796 42.6284C109.67 42.501 109.619 42.3482 109.619 42.17C109.619 41.9917 109.67 41.8135 109.796 41.6861C109.923 41.5588 110.075 41.4824 110.252 41.4824C110.43 41.4824 110.607 41.5588 110.734 41.6861C110.86 41.8135 110.936 41.9663 110.936 42.17C110.936 42.3737 110.86 42.501 110.734 42.6284C110.607 42.7557 110.455 42.8066 110.252 42.8066ZM109.847 49.1729C109.847 49.1729 109.796 49.1729 109.771 49.1475C109.746 49.122 109.746 49.0965 109.746 49.0711V44.0035C109.746 44.0035 109.746 43.9525 109.771 43.9271C109.796 43.9016 109.822 43.9016 109.847 43.9016H110.658C110.658 43.9016 110.708 43.9016 110.734 43.9271C110.759 43.9525 110.759 43.978 110.759 44.0035V49.0711C110.759 49.0711 110.759 49.122 110.734 49.1475C110.708 49.1729 110.683 49.1729 110.658 49.1729H109.847Z" fill="#6B7078"/>
<path d="M116.23 48.4085C116.002 48.6886 115.724 48.9178 115.394 49.0706C115.065 49.2234 114.71 49.2998 114.305 49.2998C113.9 49.2998 113.545 49.2234 113.216 49.0706C112.912 48.9178 112.633 48.7141 112.43 48.4594C112.228 48.2048 112.05 47.8992 111.949 47.5681C111.848 47.2371 111.797 46.8551 111.797 46.4731C111.797 46.0911 111.848 45.7346 111.949 45.3781C112.05 45.0471 112.202 44.7415 112.43 44.4868C112.633 44.2322 112.912 44.0285 113.216 43.8757C113.52 43.7229 113.9 43.6465 114.305 43.6465C114.71 43.6465 115.065 43.7229 115.394 43.8757C115.698 44.0285 115.977 44.2322 116.18 44.4868C116.382 44.7415 116.56 45.0471 116.661 45.3781C116.762 45.7092 116.813 46.0911 116.813 46.4731C116.813 46.8551 116.762 47.2116 116.661 47.5427C116.56 47.8737 116.408 48.1538 116.23 48.4085ZM114.305 44.6142C114.052 44.6142 113.849 44.6651 113.646 44.767C113.469 44.8688 113.317 45.0216 113.19 45.1999C113.064 45.3781 112.988 45.5818 112.937 45.811C112.886 46.0402 112.861 46.2694 112.861 46.4731C112.861 46.6768 112.886 46.9315 112.937 47.1352C112.988 47.3644 113.089 47.5681 113.19 47.7464C113.292 47.9246 113.444 48.0774 113.646 48.1793C113.824 48.2812 114.052 48.3321 114.305 48.3321C114.558 48.3321 114.761 48.2812 114.964 48.1793C115.141 48.0774 115.293 47.9246 115.42 47.7464C115.546 47.5681 115.622 47.3644 115.673 47.1352C115.724 46.906 115.749 46.7023 115.749 46.4731C115.749 46.2439 115.724 46.0402 115.673 45.811C115.622 45.5818 115.521 45.3781 115.42 45.1999C115.293 45.0216 115.166 44.8688 114.964 44.767C114.786 44.6651 114.558 44.5887 114.305 44.5887V44.6142Z" fill="#6B7078"/>
<path d="M121.323 49.147C121.323 49.147 121.272 49.1471 121.247 49.0961C121.247 49.0707 121.221 49.0452 121.221 48.9943V45.913C121.221 45.4546 121.145 45.1235 120.993 44.9198C120.841 44.7161 120.613 44.6142 120.309 44.6142C119.879 44.6142 119.575 44.7416 119.372 44.9708C119.169 45.1999 119.068 45.5565 119.068 45.9894V49.0197C119.068 49.0197 119.017 49.147 118.941 49.147H118.156C118.156 49.147 118.105 49.1471 118.08 49.0961C118.08 49.0707 118.055 49.0452 118.055 48.9943V45.149C118.055 44.8944 118.055 44.6652 118.055 44.436C118.055 44.2068 118.055 44.0285 118.055 43.9012C118.055 43.8248 118.08 43.7739 118.181 43.7739H118.941C118.941 43.7739 119.043 43.7994 119.017 43.8503V44.2068C119.169 44.054 119.372 43.9267 119.575 43.7994C119.803 43.6975 120.056 43.6211 120.36 43.6211C120.968 43.6211 121.449 43.7994 121.779 44.1559C122.108 44.5124 122.26 45.0471 122.26 45.7347V48.9688C122.26 48.9688 122.209 49.0961 122.133 49.0961H121.348L121.323 49.147Z" fill="#6B7078"/>
<path d="M127.706 46.1942V49.0209C127.706 49.0209 127.656 49.1482 127.58 49.1482H126.718C126.718 49.1482 126.592 49.0973 126.592 49.0209V41.9925C126.592 41.9925 126.592 41.9416 126.617 41.9161C126.617 41.9161 126.668 41.8906 126.693 41.8906H128.644C129.353 41.8906 129.911 42.0689 130.341 42.3999C130.747 42.7564 130.949 43.2912 130.949 44.0297C130.949 44.3862 130.899 44.6918 130.772 44.9719C130.645 45.252 130.493 45.4812 130.265 45.6595C130.063 45.8377 129.809 45.9905 129.505 46.0669C129.201 46.1688 128.897 46.2197 128.542 46.2197H127.656L127.706 46.1942ZM127.706 42.8838V45.2011H128.492C128.923 45.2011 129.252 45.0992 129.505 44.921C129.759 44.7427 129.885 44.4371 129.885 44.0042C129.885 43.6477 129.784 43.3676 129.581 43.1639C129.379 42.9856 129.125 42.8838 128.796 42.8838H127.706Z" fill="#6B7078"/>
<path d="M134.598 44.7941C134.471 44.7686 134.37 44.7431 134.269 44.7431C134.167 44.7431 134.091 44.7431 134.015 44.7431C133.813 44.7941 133.661 44.8705 133.559 44.9978C133.433 45.1251 133.357 45.2779 133.281 45.4307C133.23 45.609 133.179 45.7872 133.154 45.9655C133.154 46.1692 133.129 46.3475 133.129 46.5257V49.0468C133.129 49.0468 133.078 49.1741 133.002 49.1741H132.217C132.217 49.1741 132.115 49.1232 132.115 49.0213V45.1251C132.115 44.9214 132.115 44.7177 132.115 44.514C132.115 44.3102 132.115 44.132 132.115 43.9792C132.115 43.9283 132.115 43.8773 132.141 43.8773C132.141 43.8773 132.191 43.8773 132.242 43.8773H133.027H133.103C133.103 43.8773 133.103 43.9028 133.103 43.9537V44.3866C133.103 44.3866 133.205 44.2338 133.281 44.1574C133.357 44.081 133.433 44.0047 133.509 43.9537C133.585 43.9028 133.686 43.8519 133.762 43.8009C133.863 43.7755 133.939 43.75 134.015 43.75C134.142 43.75 134.243 43.75 134.345 43.75C134.446 43.75 134.547 43.7755 134.649 43.8519C134.674 43.8519 134.699 43.8773 134.699 43.9028C134.699 43.9283 134.699 43.9537 134.699 43.9792V44.6922C134.699 44.6922 134.699 44.7431 134.674 44.7686C134.674 44.7941 134.623 44.8195 134.547 44.7941H134.598Z" fill="#6B7078"/>
<path d="M139.588 48.4085C139.36 48.6886 139.081 48.9178 138.752 49.0706C138.422 49.2234 138.068 49.2998 137.662 49.2998C137.257 49.2998 136.902 49.2234 136.573 49.0706C136.269 48.9178 135.99 48.7141 135.788 48.4594C135.585 48.2048 135.408 47.8992 135.306 47.5681C135.205 47.2371 135.154 46.8551 135.154 46.4731C135.154 46.0911 135.205 45.7346 135.306 45.3781C135.408 45.0471 135.56 44.7415 135.788 44.4868C135.99 44.2322 136.269 44.0285 136.573 43.8757C136.877 43.7229 137.257 43.6465 137.662 43.6465C138.068 43.6465 138.422 43.7229 138.752 43.8757C139.056 44.0285 139.334 44.2322 139.537 44.4868C139.74 44.7415 139.917 45.0471 140.018 45.3781C140.12 45.7092 140.17 46.0911 140.17 46.4731C140.17 46.8551 140.12 47.2116 140.018 47.5427C139.917 47.8737 139.765 48.1538 139.588 48.4085ZM137.662 44.6142C137.409 44.6142 137.206 44.6651 137.004 44.767C136.826 44.8688 136.674 45.0216 136.548 45.1999C136.421 45.3781 136.345 45.5818 136.294 45.811C136.244 46.0402 136.218 46.2694 136.218 46.4731C136.218 46.6768 136.244 46.9315 136.294 47.1352C136.345 47.3644 136.446 47.5681 136.548 47.7464C136.649 47.9246 136.801 48.0774 137.004 48.1793C137.181 48.2812 137.409 48.3321 137.662 48.3321C137.916 48.3321 138.118 48.2812 138.321 48.1793C138.498 48.0774 138.65 47.9246 138.777 47.7464C138.904 47.5681 138.98 47.3644 139.03 47.1352C139.081 46.906 139.106 46.7023 139.106 46.4731C139.106 46.2439 139.081 46.0402 139.03 45.811C138.98 45.5818 138.878 45.3781 138.777 45.1999C138.65 45.0216 138.524 44.8688 138.321 44.767C138.144 44.6651 137.916 44.5887 137.662 44.5887V44.6142Z" fill="#6B7078"/>
<path d="M143.388 49.1229C143.388 49.1229 143.338 49.1229 143.312 49.1229H142.476H142.4C142.4 49.1229 142.375 49.0975 142.35 49.0465L140.602 43.928C140.602 43.928 140.602 43.8771 140.602 43.8516C140.602 43.8516 140.652 43.8262 140.728 43.8262H141.564C141.564 43.8262 141.615 43.8262 141.64 43.8262C141.666 43.8262 141.666 43.8516 141.691 43.8771L142.882 47.5186L144.072 43.8771C144.072 43.8771 144.098 43.8262 144.123 43.8262C144.123 43.8262 144.174 43.8262 144.199 43.8262H145.035C145.035 43.8262 145.136 43.8262 145.162 43.8516C145.187 43.8771 145.162 43.9026 145.162 43.928L143.388 49.0465C143.388 49.0465 143.363 49.0975 143.338 49.1229H143.388Z" fill="#6B7078"/>
<path d="M146.403 42.8066C146.226 42.8066 146.074 42.7557 145.947 42.6284C145.82 42.501 145.77 42.3482 145.77 42.17C145.77 41.9917 145.82 41.8135 145.947 41.6861C146.074 41.5588 146.226 41.4824 146.403 41.4824C146.58 41.4824 146.758 41.5588 146.884 41.6861C147.011 41.8135 147.087 41.9663 147.087 42.17C147.087 42.3737 147.011 42.501 146.884 42.6284C146.758 42.7557 146.606 42.8066 146.403 42.8066ZM145.998 49.1729C145.998 49.1729 145.947 49.1729 145.922 49.1475C145.896 49.122 145.896 49.0965 145.896 49.0711V44.0035C145.896 44.0035 145.896 43.9525 145.922 43.9271C145.947 43.9016 145.972 43.9016 145.998 43.9016H146.808C146.808 43.9016 146.859 43.9016 146.884 43.9271C146.91 43.9525 146.91 43.978 146.91 44.0035V49.0711C146.91 49.0711 146.91 49.122 146.884 49.1475C146.859 49.1729 146.834 49.1729 146.808 49.1729H145.998Z" fill="#6B7078"/>
<path d="M151.724 49.1733C151.724 49.1733 151.572 49.1224 151.572 49.0205V48.664C151.446 48.8422 151.243 48.995 151.015 49.1224C150.761 49.2497 150.508 49.3006 150.255 49.3006C149.9 49.3006 149.596 49.2242 149.317 49.0969C149.039 48.9696 148.811 48.7658 148.633 48.5367C148.456 48.282 148.304 47.9764 148.203 47.6454C148.101 47.2889 148.051 46.8814 148.051 46.4485C148.051 46.0156 148.101 45.6336 148.203 45.2771C148.304 44.9206 148.456 44.6405 148.633 44.3858C148.811 44.1312 149.064 43.9529 149.317 43.8256C149.596 43.6983 149.9 43.6219 150.229 43.6219C150.483 43.6219 150.736 43.6728 150.964 43.7747C151.192 43.8765 151.395 44.0293 151.572 44.2076V41.4573C151.572 41.4573 151.572 41.3809 151.572 41.3555C151.572 41.3555 151.623 41.3555 151.674 41.3555H152.459C152.459 41.3555 152.586 41.4064 152.586 41.4828V49.0714C152.586 49.0714 152.586 49.1733 152.535 49.1988C152.51 49.2242 152.459 49.2497 152.434 49.2497H151.699L151.724 49.1733ZM150.381 44.5896C149.976 44.5896 149.672 44.7423 149.469 45.0734C149.267 45.4044 149.14 45.8628 149.14 46.4485C149.14 47.0851 149.241 47.5435 149.469 47.8746C149.697 48.1801 149.976 48.3584 150.381 48.3584C150.559 48.3584 150.711 48.3075 150.863 48.2311C151.015 48.1547 151.142 48.0274 151.243 47.8746C151.344 47.7218 151.446 47.5181 151.496 47.2889C151.572 47.0597 151.598 46.7796 151.598 46.474C151.598 45.8628 151.496 45.379 151.268 45.0734C151.04 44.7678 150.761 44.615 150.381 44.615V44.5896Z" fill="#6B7078"/>
<path d="M158.183 46.7294C158.183 46.7294 158.183 46.8313 158.133 46.8568C158.107 46.8822 158.082 46.9077 158.031 46.9077H154.865C154.89 47.3406 155.042 47.6971 155.27 47.9772C155.498 48.2573 155.827 48.3847 156.233 48.3847C156.435 48.3847 156.689 48.3592 156.942 48.3083C157.195 48.2573 157.449 48.1555 157.677 48.0282C157.727 48.0027 157.753 48.0282 157.753 48.0282C157.753 48.0536 157.753 48.1046 157.753 48.1555V48.8176C157.753 48.8176 157.753 48.9194 157.727 48.9449C157.727 48.9704 157.677 49.0213 157.601 49.0468C157.398 49.1486 157.195 49.225 156.917 49.276C156.663 49.3269 156.385 49.3523 156.131 49.3523C155.346 49.3523 154.738 49.1232 154.333 48.6393C153.927 48.1555 153.725 47.4679 153.725 46.5257C153.725 46.1692 153.775 45.8382 153.851 45.5071C153.953 45.1761 154.079 44.8705 154.257 44.6158C154.434 44.3612 154.662 44.132 154.941 43.9792C155.219 43.8264 155.549 43.75 155.929 43.75C156.309 43.75 156.638 43.8264 156.917 43.9792C157.195 44.132 157.423 44.3357 157.575 44.5904C157.727 44.845 157.879 45.1251 157.955 45.4562C158.031 45.7872 158.082 46.1437 158.082 46.5257C158.082 46.5766 158.082 46.6276 158.082 46.6785C158.082 46.7294 158.082 46.7804 158.082 46.8058L158.183 46.7294ZM156.081 44.6158C155.903 44.6158 155.751 44.6667 155.625 44.7431C155.498 44.8195 155.371 44.9214 155.27 45.0487C155.169 45.1761 155.093 45.3034 155.042 45.4816C154.991 45.6344 154.941 45.8127 154.915 45.9655H157.119C157.119 45.8381 157.119 45.6854 157.069 45.5326C157.018 45.3798 156.967 45.227 156.891 45.0997C156.815 44.9723 156.714 44.845 156.562 44.7686C156.435 44.6667 156.283 44.6413 156.106 44.6413L156.081 44.6158Z" fill="#6B7078"/>
<path d="M161.932 44.7941C161.805 44.7686 161.704 44.7431 161.603 44.7431C161.501 44.7431 161.425 44.7431 161.349 44.7431C161.147 44.7941 160.995 44.8705 160.893 44.9978C160.767 45.1251 160.691 45.2779 160.615 45.4307C160.564 45.609 160.513 45.7872 160.488 45.9655C160.488 46.1692 160.463 46.3475 160.463 46.5257V49.0468C160.463 49.0468 160.412 49.1741 160.336 49.1741H159.551C159.551 49.1741 159.449 49.1232 159.449 49.0213V45.1251C159.449 44.9214 159.449 44.7177 159.449 44.514C159.449 44.3102 159.449 44.132 159.449 43.9792C159.449 43.9283 159.449 43.8773 159.475 43.8773C159.475 43.8773 159.525 43.8773 159.576 43.8773H160.361H160.437C160.437 43.8773 160.437 43.9028 160.437 43.9537V44.3866C160.437 44.3866 160.539 44.2338 160.615 44.1574C160.691 44.081 160.767 44.0047 160.843 43.9537C160.919 43.9028 161.02 43.8519 161.096 43.8009C161.197 43.7755 161.273 43.75 161.349 43.75C161.476 43.75 161.577 43.75 161.679 43.75C161.78 43.75 161.881 43.7755 161.983 43.8519C162.008 43.8519 162.033 43.8773 162.033 43.9028C162.033 43.9283 162.033 43.9537 162.033 43.9792V44.6922C162.033 44.6922 162.033 44.7431 162.008 44.7686C162.008 44.7941 161.957 44.8195 161.881 44.7941H161.932Z" fill="#6B7078"/>
</g>
<defs>
<clipPath id="clip0_4_4717">
<rect width="167" height="52" fill="white"/>
</clipPath>
</defs>
</svg>
